<?xml version="1.0" encoding="UTF-8" standalone="no"?>
<!-- Created with Inkscape (http://www.inkscape.org/) -->

<svg
   width="297mm"
   height="210mm"
   viewBox="0 0 297 210"
   version="1.1"
   id="svg5"
   xml:space="preserve"
   inkscape:version="1.2.2 (732a01da63, 2022-12-09)"
   sodipodi:docname="icon-v2.svg"
   xmlns:inkscape="http://www.inkscape.org/namespaces/inkscape"
   xmlns:sodipodi="http://sodipodi.sourceforge.net/DTD/sodipodi-0.dtd"
   xmlns:xlink="http://www.w3.org/1999/xlink"
   xmlns="http://www.w3.org/2000/svg"
   xmlns:svg="http://www.w3.org/2000/svg"><sodipodi:namedview
     id="namedview7"
     pagecolor="#505050"
     bordercolor="#ffffff"
     borderopacity="1"
     inkscape:showpageshadow="0"
     inkscape:pageopacity="0"
     inkscape:pagecheckerboard="1"
     inkscape:deskcolor="#505050"
     inkscape:document-units="mm"
     showgrid="false"
     inkscape:zoom="0.26110523"
     inkscape:cx="-335.11393"
     inkscape:cy="-340.85874"
     inkscape:window-width="1920"
     inkscape:window-height="1009"
     inkscape:window-x="1912"
     inkscape:window-y="-8"
     inkscape:window-maximized="1"
     inkscape:current-layer="layer1" /><defs
     id="defs2"><linearGradient
       inkscape:collect="always"
       id="linearGradient25061"><stop
         style="stop-color:#fff5e0;stop-opacity:1;"
         offset="0"
         id="stop25057" /><stop
         style="stop-color:#feb819;stop-opacity:1;"
         offset="1"
         id="stop25059" /></linearGradient><linearGradient
       inkscape:collect="always"
       id="linearGradient25049"><stop
         style="stop-color:#fff5e0;stop-opacity:1;"
         offset="0"
         id="stop25045" /><stop
         style="stop-color:#feb819;stop-opacity:1;"
         offset="1"
         id="stop25047" /></linearGradient><linearGradient
       inkscape:collect="always"
       id="linearGradient22137"><stop
         style="stop-color:#fff5e0;stop-opacity:1;"
         offset="0"
         id="stop22133" /><stop
         style="stop-color:#feb819;stop-opacity:1;"
         offset="1"
         id="stop22135" /></linearGradient><linearGradient
       inkscape:collect="always"
       id="linearGradient19945"><stop
         style="stop-color:#feb819;stop-opacity:1;"
         offset="0"
         id="stop19943" /><stop
         style="stop-color:#ff780d;stop-opacity:1;"
         offset="1"
         id="stop19941" /></linearGradient><linearGradient
       inkscape:collect="always"
       xlink:href="#linearGradient19945"
       id="linearGradient21403"
       x1="-113.0758"
       y1="-56.907742"
       x2="86.529083"
       y2="-56.907742"
       gradientUnits="userSpaceOnUse" /><linearGradient
       inkscape:collect="always"
       xlink:href="#linearGradient22137"
       id="linearGradient22139"
       x1="104.3684"
       y1="-56.907742"
       x2="303.28066"
       y2="-56.907742"
       gradientUnits="userSpaceOnUse" /><linearGradient
       inkscape:collect="always"
       xlink:href="#linearGradient25049"
       id="linearGradient25051"
       x1="-49.742918"
       y1="-56.907742"
       x2="239.93875"
       y2="-56.907742"
       gradientUnits="userSpaceOnUse" /><linearGradient
       inkscape:collect="always"
       xlink:href="#linearGradient25061"
       id="linearGradient25063"
       x1="157.47298"
       y1="101.39187"
       x2="261.53699"
       y2="101.39187"
       gradientUnits="userSpaceOnUse" /></defs><g
     inkscape:label="Calque 1"
     inkscape:groupmode="layer"
     id="layer1"><g
       transform="matrix(0.63188746,0,0,0.63188746,92.04829,137.35115)"
       id="g8604"><path
         d="m 154.13281,-123.07169 c 18.60036,-28.33202 36.45819,-27.04451 68.5886,-28.38817 3.73707,-0.12129 7.46381,-0.34798 11.17641,-0.7189 l 6.04093,-0.81264 H 136.85301 c 0,0 -100.777899,162.2476369 -100.777904,162.2475976 C 17.676623,34.838887 -25.536358,36.793597 -49.742918,39.175915 H 53.351836 Z"
         fill="#bbbbbb"
         id="path8594"
         style="fill:url(#linearGradient25051);fill-opacity:1;stroke-width:3.02464"
         sodipodi:nodetypes="ccccccccc" /><path
         d="m 239.9387,-152.9914 v 0 c -0.79351,0.13452 -1.57707,0.20736 -2.37872,0.32 -29.90588,4.20196 -65.19201,-5.96718 -83.42722,29.59972 h 66.92918 l 47.66526,66.163935 -38.19815,66.1639456 h -76.39629 l -29.70194,-51.4490836 -20.06242,31.794989 32.48461,49.573809 h 110.9558 l 55.47185,-96.08366 c 0,0 -63.34192,-96.083645 -63.34196,-96.083655 z"
         fill="#48c399"
         id="path8596"
         sodipodi:nodetypes="ccsccccccccccc"
         style="fill:url(#linearGradient22139);fill-opacity:1;stroke-width:3.02464" /><path
         d="M 53.351836,-152.9914 H -57.597902 l -55.477898,96.083655 2.6889,4.660967 60.643982,91.422693 C 3.0158031,37.079563 19.120513,32.026991 36.075106,9.2562006 h -66.941277 l -47.656173,-66.1639456 38.198147,-66.163935 h 76.399303 l 29.759409,51.542838 20.694569,-32.808238 z"
         fill="#29a662"
         id="path8600"
         sodipodi:nodetypes="ccccccccccccc"
         style="fill:url(#linearGradient21403);fill-opacity:1;stroke-width:3.02464" /></g><path
       style="fill:#feb819;fill-opacity:1;stroke-width:0.280737;stroke-linecap:round;stroke-linejoin:round"
       d="m 146.72492,71.421861 v 0 l 1e-5,-3e-6 -13.15703,22.702926 -19.42441,-33.603778 -46.894161,0.04445 -24.818324,40.826404 30.685645,40.96057 41.07129,-0.35559 1.34038,0.0173 -0.68462,1.18591 H 72.544339 L 42.431002,101.39187 66.567934,59.583704 H 114.8437 l 18.80459,32.569275 z"
       id="path16282"
       sodipodi:nodetypes="ccccccccccccccccc" /><path
       style="fill:url(#linearGradient25063);fill-opacity:1;stroke-width:0.280737;stroke-linecap:round;stroke-linejoin:round"
       d="m 157.99737,130.78086 v 0 0 l 0,-1e-5 12.68656,-22.05318 19.42366,33.44698 46.9386,-0.3556 24.80744,-40.42718 -30.67475,-40.115223 -42.77234,0.102174 1.03633,-1.795121 42.29169,8e-6 30.11907,41.808162 -24.13694,41.80817 h -48.27385 l -18.76828,-32.51003 z"
       id="path16284"
       sodipodi:nodetypes="ccccccccccccccccc" /><path
       style="fill:#feb819;fill-opacity:1;stroke-width:0.280737;stroke-linecap:round;stroke-linejoin:round"
       d="m 60.616355,162.10593 h 65.144285 l 62.6459,-100.727111 c 13.81047,-24.868074 35.07751,-17.983626 55.25603,-20.701011 -28.34005,2.005554 -42.34979,-1.504017 -56.25763,19.961186 L 125.17255,161.0909 Z"
       id="path17012"
       sodipodi:nodetypes="ccccccc" /></g></svg>
