<svg version="1.1" x="0px" y="0px" width="317.17090807954" height="119.7177244979" xmlns="http://www.w3.org/2000/svg" xmlns:xlink="http://www.w3.org/1999/xlink" xmlns:a="http://ns.adobe.com/AdobeSVGViewerExtensions/3.0/" xml:space="preserve"><g transform="translate(0 0)"><g transform="translate(0 0) scale(1.7014055658646 1.7014055658646) rotate(0 93.20849609375 35.182006835938)"><path d="m95.938 49.427 6.816-10.807-.014-.023 1.681-2.911 10.948-18.964h22.128l6.241-9.892h-34.082l-13.6 20.54-7.168 11.363-1.603 2.775-10.948 18.964H54.205l-6.241 9.892h34.085l13.887-20.939z" fill="#bbbbbb"></path><path d="M162.906 35.523h-5.48v-6.456h1.752l-3.67-6.357h-8.135V12.367h2.163l-1.645-2.85-5.965 9.455 11.33 19.625-12.629 21.875h-25.258l-9.82-17.01-6.633 10.512 10.74 16.39h36.684l18.34-31.767z" fill="#48c399"></path><path fill-rule="evenodd" clip-rule="evenodd" d="M161.854 8.41h-4.297v4.297h4.297V8.41zm21.25-1.023v3.307h3.313V7.387h-3.313zM173.482 0h-5.902v5.907h5.902V0zm-17.714 1.164h-4.292v4.298h4.292V1.164zm14.315 29.438h3.313v-3.308h-3.313v3.308zm-.358-10.199h6.977v-6.979h-6.977v6.979zm-7.871 2.501h4.291v-4.292h-4.291v4.292zm-13.245-1.429h7.877v-7.871h-7.877v7.871z" fill="#29a662"></path><path d="M82.049 6.83H45.367L27.025 38.597l.889 1.541h8.846v8.405h-3.992l4.861 8.42v-1.189h3.307v3.313h-2.081l4.959 8.588 5.963-9.455-11.328-19.623 12.629-21.875h25.259l9.839 17.041 6.842-10.847z" fill="#29a662"></path><path fill-rule="evenodd" clip-rule="evenodd" d="M8.408 45.802h4.297v-4.297H8.408v4.297zM7.387 70.364h3.307v-3.313H7.387v3.313zM0 57.43h5.907v-5.901H0v5.901zm5.461-22.006H1.164v4.292h4.297v-4.292zm22.457 20.712h3.308v-3.313h-3.308v3.313zm-14.494 4.513h6.979v-6.978h-6.979v6.978zm5.189-10.556h4.291v-4.291h-4.291v4.291zm2.861-17.536h-7.87v7.875h7.87v-7.875zm7.592 8.817v5.932h6.456v-5.932h-6.456z" fill="#48c399"></path></g></g></svg>
